<svg width="588" height="127" viewBox="0 0 588 127" fill="none" xmlns="http://www.w3.org/2000/svg">
<path fill-rule="evenodd" clip-rule="evenodd" d="M528.655 122.893V17.9036H553.061V94.4924H586.401V122.893H528.655ZM487.68 106.106H467.112L464.214 122.893H441.847L462.415 17.9036H497.204L516.253 122.893H490.578L487.68 106.106V106.106ZM477.466 79.8087L469.87 90.7043H485.051L477.456 79.8087H477.466ZM404.779 17.9036H429.354V122.893H404.779V17.9036ZM364.723 122.893L348.293 79.689V122.893H323.717V17.9036H356.158C370.1 17.9036 377.415 20.4855 382.802 26.686C387.02 31.3314 389.568 37.6614 389.568 47.1715C389.568 60.4197 384.321 70.7472 372.728 75.572L394.405 122.903H364.723V122.893ZM353.959 43.2538H348.303V68.5043C348.303 68.5043 351.071 69.541 354.099 69.541C359.896 69.541 364.043 66.4408 364.043 56.1133C364.043 48.1982 361.695 43.2538 353.969 43.2538H353.959ZM271.988 125.515C244.155 125.515 233.801 103.444 233.801 70.3983C233.801 37.3524 244.155 15.3218 271.988 15.3218C299.821 15.3218 310.005 37.3524 310.005 70.3983C310.005 103.444 299.652 125.515 271.988 125.515ZM283.501 83.1382V57.6684C283.501 52.1558 282.672 49.235 280.743 47.1715C278.814 45.108 275.776 43.7323 271.988 43.7323C268.2 43.7323 265.002 45.108 263.073 47.1715C261.144 49.235 260.315 52.1657 260.315 57.6684V83.1382C260.315 88.6508 261.144 91.5716 263.073 93.6351C265.002 95.6986 268.04 97.0743 271.988 97.0743C275.936 97.0743 278.804 95.6986 280.743 93.6351C282.672 91.5716 283.501 88.6408 283.501 83.1382ZM205.917 122.893H181.342V46.3042H160.634V17.9036H226.625V46.3042H205.917V122.893ZM114.272 125.515C103.918 125.515 94.9434 121.906 88.0475 113.253C81.0117 104.65 78.2433 93.6351 78.2433 77.476V17.9036H102.819V84.1649C102.819 92.4289 105.857 96.217 114.272 96.217C122.687 96.217 125.725 92.4289 125.725 84.1649V17.9036H150.3V77.476C150.3 93.6351 147.542 104.65 140.496 113.253C133.59 121.896 124.626 125.515 114.272 125.515V125.515ZM46.882 122.893H22.4765V46.3042H1.479V17.9036H67.4697V46.3042H46.882V122.893V122.893Z" fill="#1788B2"/>
<path d="M271.978 127C245.654 127 232.312 107.96 232.312 70.408C232.312 32.8563 245.654 13.8462 271.978 13.8462C298.302 13.8462 311.475 32.8763 311.475 70.408C311.475 107.94 298.183 127 271.978 127ZM271.978 16.8069C259.076 16.8069 249.831 21.532 243.705 31.2613C238.108 40.1434 235.28 53.3119 235.28 70.408C235.28 87.5042 238.118 100.683 243.705 109.575C249.831 119.314 259.076 124.049 271.978 124.049C284.88 124.049 294.005 119.314 300.101 109.575C305.678 100.673 308.506 87.4942 308.506 70.408C308.506 53.3219 305.678 40.1533 300.101 31.2613C294.005 21.542 284.8 16.8069 271.978 16.8069V16.8069ZM114.262 127C102.879 127 93.6642 122.683 86.8683 114.18C79.7725 105.507 76.7443 94.5321 76.7443 77.4758V17.9034C76.7443 17.086 77.4039 16.4281 78.2234 16.4281H102.799C103.618 16.4281 104.278 17.086 104.278 17.9034V84.1647C104.278 91.8704 106.976 94.7314 114.252 94.7314C121.528 94.7314 124.226 91.8704 124.226 84.1647V17.9034C124.226 17.086 124.886 16.4281 125.705 16.4281H150.281C151.1 16.4281 151.76 17.086 151.76 17.9034V77.4758C151.76 94.5221 148.731 105.507 141.626 114.19C134.85 122.683 125.635 126.99 114.252 126.99L114.262 127ZM79.7225 19.3887V77.4858C79.7225 93.7944 82.5509 104.222 89.1869 112.326C95.4832 120.211 103.678 124.039 114.262 124.039C124.846 124.039 133.041 120.211 139.327 112.336C145.973 104.212 148.801 93.7944 148.801 77.4758V19.3887H127.194V84.1647C127.194 93.5252 123.207 97.6921 114.252 97.6921C105.297 97.6921 101.31 93.5153 101.31 84.1647V19.3887H79.7026H79.7225ZM586.401 124.378H528.655C527.836 124.378 527.176 123.72 527.176 122.903V17.9034C527.176 17.086 527.836 16.4281 528.655 16.4281H553.061C553.88 16.4281 554.54 17.086 554.54 17.9034V93.0168H586.391C587.21 93.0168 587.87 93.6748 587.87 94.4922V122.893C587.87 123.71 587.21 124.368 586.391 124.368L586.401 124.378ZM530.144 121.417H584.922V95.9775H553.071C552.251 95.9775 551.592 95.3196 551.592 94.5022V19.3887H530.154V121.417H530.144ZM516.253 124.378H490.578C489.858 124.378 489.239 123.86 489.119 123.152L486.43 107.591H468.361L465.673 123.152C465.553 123.86 464.933 124.378 464.214 124.378H441.847C441.407 124.378 440.988 124.179 440.698 123.84C440.418 123.501 440.298 123.052 440.388 122.614L460.956 17.6243C461.096 16.9265 461.705 16.4281 462.415 16.4281H497.204C497.924 16.4281 498.533 16.9365 498.663 17.6442L517.712 122.634C517.792 123.062 517.672 123.511 517.392 123.85C517.112 124.189 516.692 124.378 516.253 124.378V124.378ZM491.827 121.417H514.474L495.965 19.3887H463.634L443.646 121.417H462.954L465.643 105.856C465.763 105.149 466.382 104.63 467.102 104.63H487.67C488.389 104.63 489.009 105.149 489.129 105.856L491.817 121.417H491.827ZM429.344 124.378H404.769C403.95 124.378 403.29 123.72 403.29 122.903V17.9034C403.29 17.086 403.95 16.4281 404.769 16.4281H429.344C430.164 16.4281 430.824 17.086 430.824 17.9034V122.893C430.824 123.71 430.164 124.368 429.344 124.368V124.378ZM406.258 121.417H427.865V19.3887H406.258V121.417ZM394.405 124.378H364.723C364.103 124.378 363.554 123.999 363.334 123.421L349.782 87.7734V122.903C349.782 123.72 349.122 124.378 348.303 124.378H323.727C322.908 124.378 322.248 123.72 322.248 122.903V17.9034C322.248 17.086 322.908 16.4281 323.727 16.4281H356.168C370.34 16.4281 378.125 19.0299 383.931 25.7188C388.719 31.0022 391.057 38.0201 391.057 47.1712C391.057 61.217 385.411 71.2554 374.707 76.3194L395.754 122.295C395.964 122.753 395.924 123.282 395.655 123.71C395.385 124.139 394.915 124.388 394.405 124.388V124.378ZM365.752 121.417H392.097L371.379 76.1799C371.209 75.811 371.199 75.4023 371.349 75.0235C371.499 74.6547 371.789 74.3556 372.158 74.1961C382.582 69.8697 388.089 60.5192 388.089 47.1613C388.089 38.668 386.06 32.4775 381.703 27.6726C376.516 21.7015 369.36 19.3788 356.158 19.3788H325.196V121.417H346.804V79.6988C346.804 78.981 347.313 78.373 348.023 78.2434C348.732 78.1138 349.422 78.5025 349.682 79.1704L365.742 121.417H365.752ZM205.917 124.378H181.342C180.523 124.378 179.863 123.72 179.863 122.903V47.7793H160.644C159.825 47.7793 159.165 47.1214 159.165 46.304V17.9034C159.165 17.086 159.825 16.4281 160.644 16.4281H226.635C227.455 16.4281 228.114 17.086 228.114 17.9034V46.304C228.114 47.1214 227.455 47.7793 226.635 47.7793H207.417V122.893C207.417 123.71 206.757 124.368 205.937 124.368L205.917 124.378ZM182.831 121.417H204.438V46.304C204.438 45.4865 205.098 44.8286 205.917 44.8286H225.136V19.3887H162.114V44.8286H181.332C182.152 44.8286 182.811 45.4865 182.811 46.304V121.417H182.831ZM46.8921 124.378H22.4766C21.6571 124.378 20.9975 123.72 20.9975 122.903V47.7793H1.47912C0.659607 47.7793 0 47.1214 0 46.304V17.9034C0 17.086 0.659607 16.4281 1.47912 16.4281H67.4698C68.2894 16.4281 68.949 17.086 68.949 17.9034V46.304C68.949 47.1214 68.2894 47.7793 67.4698 47.7793H48.3612V122.893C48.3612 123.71 47.7016 124.368 46.8821 124.368L46.8921 124.378ZM23.9757 121.417H45.413V46.304C45.413 45.4865 46.0726 44.8286 46.8921 44.8286H66.0007V19.3887H2.96823V44.8286H22.4766C23.2961 44.8286 23.9557 45.4865 23.9557 46.304V121.417H23.9757ZM271.998 98.5594C267.911 98.5594 264.353 97.1737 261.994 94.6517C259.745 92.2492 258.836 88.9197 258.836 83.138V57.6682C258.836 51.8963 259.755 48.5569 261.994 46.1544C264.353 43.6324 267.911 42.2467 271.998 42.2467C276.086 42.2467 279.474 43.6324 281.832 46.1544C284.081 48.5569 284.99 51.8864 284.99 57.6682V83.138C284.99 88.9098 284.071 92.2492 281.832 94.6517C279.474 97.1737 275.976 98.5594 271.998 98.5594ZM271.998 45.2074C268.74 45.2074 265.962 46.2641 264.163 48.1781C262.484 49.9724 261.804 52.7237 261.804 57.6682V83.138C261.804 88.0824 262.484 90.8337 264.163 92.6281C265.952 94.542 268.74 95.5987 271.998 95.5987C275.256 95.5987 277.875 94.542 279.664 92.6281C281.343 90.8337 282.022 88.0824 282.022 83.138V57.6682C282.022 52.7237 281.343 49.9724 279.664 48.1781C277.875 46.2641 275.146 45.2074 271.998 45.2074ZM485.071 92.1994H469.89C469.341 92.1994 468.831 91.8904 468.571 91.4019C468.311 90.9135 468.351 90.3253 468.671 89.8668L476.267 78.9711C476.546 78.5723 476.996 78.3331 477.486 78.3331C477.975 78.3331 478.425 78.5723 478.705 78.9711L486.301 89.8668C486.62 90.3153 486.65 90.9135 486.4 91.4019C486.141 91.8904 485.641 92.1994 485.081 92.1994H485.071ZM472.729 89.2387H482.233L477.476 82.4102L472.719 89.2387H472.729ZM354.109 71.0261C350.851 71.0261 347.913 69.9495 347.793 69.8996C347.213 69.6803 346.834 69.1321 346.834 68.514V43.2635C346.834 42.4461 347.493 41.7882 348.313 41.7882H353.969C364.333 41.7882 365.532 49.9724 365.532 56.123C365.532 66.0119 361.685 71.0261 354.109 71.0261V71.0261ZM349.792 67.4274C350.781 67.7066 352.41 68.0654 354.109 68.0654C358.047 68.0654 362.564 66.7097 362.564 56.123C362.564 48.0385 360.076 44.7489 353.969 44.7489H349.792V67.4274V67.4274Z" fill="black"/>
<path d="M394.995 109.475H365.033V123.321H394.995V109.475Z" fill="#1788B2"/>
<path d="M396.054 124.378H363.973V108.418H396.054V124.378ZM366.092 122.265H393.936V110.532H366.092V122.265Z" fill="black"/>
<path fill-rule="evenodd" clip-rule="evenodd" d="M528.775 109.057V4.05745H553.181V80.6562H586.521V109.057H528.775V109.057ZM486.101 92.1899H468.921L466.022 109.057H444.505L464.234 4.05745H495.625L513.404 109.047H488.579L486.101 92.1799V92.1899ZM477.586 32.1191L469.99 76.8681H485.171L477.576 32.1191H477.586ZM404.889 4.05745H429.464V109.057H404.889V4.05745ZM364.833 109.047L348.402 65.8429V109.047H323.827V4.05745H356.268C370.21 4.05745 377.525 6.63932 382.912 12.8398C387.129 17.4852 389.678 23.6856 389.678 33.3253C389.678 46.5735 384.431 56.901 372.838 61.7258L394.515 109.057H364.833V109.047ZM354.069 29.1883H348.412V54.9073C348.412 54.9073 351.181 55.6948 354.209 55.6948C360.006 55.6948 364.153 52.5946 364.153 42.2671C364.153 34.5016 361.805 29.1883 354.079 29.1883H354.069ZM272.098 111.629C244.264 111.629 233.911 89.598 233.911 56.5521C233.911 23.5062 244.264 1.47559 272.098 1.47559C299.931 1.47559 310.115 23.5062 310.115 56.5521C310.115 89.598 299.761 111.629 272.098 111.629V111.629ZM283.611 69.292V43.8222C283.611 38.3096 282.782 35.3888 280.853 33.3253C278.924 31.2618 275.886 29.8861 272.098 29.8861C268.31 29.8861 265.112 31.2618 263.183 33.3253C261.254 35.3888 260.425 38.3195 260.425 43.8222V69.292C260.425 74.8046 261.254 77.7254 263.183 79.7889C265.112 81.8524 268.15 83.2281 272.098 83.2281C276.046 83.2281 278.914 81.8524 280.853 79.7889C282.782 77.7254 283.611 74.7947 283.611 69.292ZM206.027 109.047H181.452V32.458H160.744V4.05745H226.735V32.458H206.027V109.057V109.047ZM114.382 111.629C104.028 111.629 95.0533 107.841 88.1574 99.4071C81.1216 90.8042 78.3532 79.7889 78.3532 63.4305V4.05745H102.929V70.3287C102.929 78.5927 105.967 82.3808 114.382 82.3808C122.797 82.3808 125.835 78.5927 125.835 70.3287V4.05745H150.41V63.4404C150.41 79.7889 147.652 90.8042 140.606 99.4171C133.7 107.851 124.736 111.639 114.382 111.639V111.629ZM46.9919 109.047H22.5964V32.458H1.60889V4.05745H67.5896V32.458H47.0019V109.057L46.9919 109.047Z" fill="#E73635"/>
<path d="M272.098 113.114C245.774 113.114 232.432 94.0837 232.432 56.5519C232.432 19.0201 245.774 0 272.098 0C298.422 0 311.594 19.0301 311.594 56.5619C311.594 94.0936 298.302 113.124 272.098 113.124V113.114ZM272.098 2.96068C259.196 2.96068 249.951 7.68579 243.825 17.4151C238.228 26.2972 235.4 39.4657 235.4 56.5619C235.4 73.658 238.238 86.8166 243.825 95.7086C249.951 105.438 259.196 110.163 272.098 110.163C285 110.163 294.125 105.438 300.221 95.7086C305.798 86.8166 308.626 73.648 308.626 56.5619C308.626 39.4757 305.798 26.3071 300.221 17.4151C294.125 7.69576 284.92 2.96068 272.098 2.96068ZM114.392 113.114C103.159 113.114 93.944 108.817 87.0182 100.354C79.9124 91.6713 76.8842 80.6261 76.8842 63.4402V4.05722C76.8842 3.2398 77.5438 2.58187 78.3633 2.58187H102.939C103.758 2.58187 104.418 3.2398 104.418 4.05722V70.3285C104.418 78.0342 107.116 80.8952 114.392 80.8952C121.668 80.8952 124.366 78.0342 124.366 70.3285V4.05722C124.366 3.2398 125.026 2.58187 125.845 2.58187H150.42C151.24 2.58187 151.9 3.2398 151.9 4.05722V63.4402C151.9 80.6261 148.871 91.6613 141.766 100.344C134.83 108.817 125.625 113.104 114.392 113.104V113.114ZM79.8424 5.54254V63.4402C79.8424 79.8884 82.6708 90.3654 89.3068 98.4798C95.643 106.225 104.088 110.153 114.382 110.153C124.676 110.153 133.121 106.225 139.457 98.4798C146.093 90.3654 148.921 79.8884 148.921 63.4402V5.54254H127.314V70.3285C127.314 79.689 123.327 83.8559 114.372 83.8559C105.417 83.8559 101.43 79.679 101.43 70.3285V5.54254H79.8225H79.8424ZM586.521 110.532H528.775C527.956 110.532 527.296 109.874 527.296 109.057V4.05722C527.296 3.2398 527.956 2.58187 528.775 2.58187H553.181C554 2.58187 554.66 3.2398 554.66 4.05722V79.1706H586.511C587.33 79.1706 587.99 79.8286 587.99 80.646V109.047C587.99 109.864 587.33 110.522 586.511 110.522L586.521 110.532ZM530.264 107.571H585.042V82.1313H553.191C552.371 82.1313 551.712 81.4734 551.712 80.656V5.54254H530.274V107.571H530.264ZM513.404 110.532H488.579C487.84 110.532 487.22 109.994 487.11 109.266L484.821 93.665H470.18L467.492 109.306C467.372 110.014 466.752 110.532 466.033 110.532H444.515C444.076 110.532 443.656 110.332 443.376 109.994C443.096 109.655 442.976 109.206 443.056 108.777L462.774 3.78807C462.904 3.09027 463.514 2.58187 464.234 2.58187H495.625C496.345 2.58187 496.964 3.10024 497.084 3.81797L514.863 108.807C514.933 109.236 514.814 109.675 514.534 110.014C514.254 110.342 513.834 110.542 513.404 110.542V110.532ZM489.858 107.571H511.645L494.376 5.54254H465.473L446.304 107.571H464.783L467.472 91.9305C467.592 91.2227 468.211 90.7043 468.931 90.7043H486.111C486.85 90.7043 487.47 91.2426 487.58 91.9703L489.868 107.571H489.858ZM429.464 110.532H404.889C404.069 110.532 403.41 109.874 403.41 109.057V4.05722C403.41 3.2398 404.069 2.58187 404.889 2.58187H429.464C430.284 2.58187 430.943 3.2398 430.943 4.05722V109.057C430.943 109.874 430.284 110.532 429.464 110.532V110.532ZM406.378 107.571H427.985V5.54254H406.378V107.571ZM394.525 110.532H364.843C364.223 110.532 363.674 110.153 363.454 109.575L349.902 73.9272V109.057C349.902 109.874 349.242 110.532 348.423 110.532H323.847C323.028 110.532 322.368 109.874 322.368 109.057V4.05722C322.368 3.2398 323.028 2.58187 323.847 2.58187H356.288C370.459 2.58187 378.245 5.18367 384.051 11.8726C388.908 17.2257 391.177 24.0542 391.177 33.325C391.177 47.3708 385.53 57.4092 374.827 62.4732L395.874 108.448C396.084 108.907 396.044 109.435 395.774 109.864C395.505 110.293 395.035 110.542 394.525 110.542V110.532ZM365.872 107.571H392.217L371.499 62.3337C371.329 61.9648 371.319 61.5561 371.469 61.1773C371.619 60.8085 371.909 60.5094 372.278 60.3499C382.702 56.0236 388.209 46.673 388.209 33.3151C388.209 24.8218 386.18 18.6313 381.823 13.8265C376.636 7.85526 369.48 5.53257 356.278 5.53257H325.316V107.571H346.923V65.8526C346.923 65.1349 347.433 64.5268 348.143 64.3972C348.842 64.2676 349.542 64.6564 349.802 65.3243L365.862 107.571H365.872ZM206.037 110.532H181.462C180.642 110.532 179.983 109.874 179.983 109.057V33.9431H160.764C159.945 33.9431 159.285 33.2852 159.285 32.4677V4.05722C159.285 3.2398 159.945 2.58187 160.764 2.58187H226.755C227.575 2.58187 228.234 3.2398 228.234 4.05722V32.4578C228.234 33.2752 227.575 33.9331 226.755 33.9331H207.536V109.057C207.536 109.874 206.877 110.532 206.057 110.532H206.037ZM182.951 107.571H204.558V32.4578C204.558 31.6403 205.218 30.9824 206.037 30.9824H225.256V5.54254H162.233V30.9824H181.452C182.271 30.9824 182.931 31.6403 182.931 32.4578V107.571H182.951ZM47.012 110.532H22.5965C21.777 110.532 21.1174 109.874 21.1174 109.057V33.9431H1.609C0.78949 33.9431 0.129883 33.2852 0.129883 32.4677V4.05722C0.129883 3.2398 0.78949 2.58187 1.609 2.58187H67.5897C68.4092 2.58187 69.0689 3.2398 69.0689 4.05722V32.4578C69.0689 33.2752 68.4092 33.9331 67.5897 33.9331H48.4811V109.057C48.4811 109.874 47.8215 110.532 47.002 110.532H47.012ZM24.0956 107.571H45.5329V32.4578C45.5329 31.6403 46.1925 30.9824 47.012 30.9824H66.1206V5.54254H3.08812V30.9824H22.5965C23.416 30.9824 24.0756 31.6403 24.0756 32.4578V107.571H24.0956ZM272.118 84.7132C268.03 84.7132 264.473 83.3276 262.114 80.7955C259.865 78.3931 258.956 75.0636 258.956 69.2818V43.812C258.956 38.0402 259.875 34.7007 262.114 32.2983C264.473 29.7762 268.03 28.3906 272.118 28.3906C276.206 28.3906 279.594 29.7762 281.952 32.2983C284.201 34.7007 285.11 38.0302 285.11 43.812V69.2818C285.11 75.0536 284.191 78.3931 281.952 80.7955C279.594 83.3176 276.096 84.7032 272.118 84.7032V84.7132ZM272.118 31.3513C268.86 31.3513 266.082 32.4079 264.283 34.3219C262.604 36.1162 261.924 38.8676 261.924 43.812V69.2818C261.924 74.2262 262.604 76.9776 264.283 78.7719C266.072 80.6859 268.86 81.7425 272.118 81.7425C275.376 81.7425 277.995 80.6859 279.783 78.7719C281.462 76.9776 282.142 74.2262 282.142 69.2818V43.812C282.142 38.8676 281.462 36.1162 279.783 34.3219C277.995 32.4079 275.266 31.3513 272.118 31.3513V31.3513ZM485.191 78.3432H470.01C469.57 78.3432 469.161 78.1538 468.881 77.8149C468.601 77.476 468.481 77.0374 468.551 76.6087L476.147 31.8597C476.266 31.1519 476.886 30.6235 477.606 30.6235C478.325 30.6235 478.945 31.1419 479.065 31.8597L486.66 76.6087C486.73 77.0374 486.61 77.476 486.33 77.8149C486.051 78.1538 485.631 78.3432 485.201 78.3432H485.191ZM471.759 75.3826H483.432L477.596 40.9809L471.759 75.3826V75.3826ZM354.219 57.1699C351.021 57.1699 348.133 56.3625 348.013 56.3326C347.373 56.1531 346.933 55.575 346.933 54.9071V29.1881C346.933 28.3706 347.593 27.7127 348.413 27.7127H354.069C365.632 27.7127 365.632 38.6682 365.632 42.2768C365.632 52.1657 361.785 57.1799 354.209 57.1799L354.219 57.1699ZM349.902 53.7308C350.921 53.9401 352.53 54.2093 354.219 54.2093C358.157 54.2093 362.674 52.8535 362.674 42.2669C362.674 34.1325 360.106 30.6634 354.079 30.6634H349.902V53.7308V53.7308Z" fill="black"/>
</svg>
